solid com.sketchup.SketchUp.2021
facet normal 1 -6.532529508648799e-14 -3.135726823345057e-16
  outer loop
    vertex 1.5 -200.0194854736328 -115.0097427368164
    vertex 1.5 -187.6194915771484 -116.5097427368164
    vertex 1.5 -187.6194915771484 -115.0097427368164
  endloop
endfacet
facet normal 1 -6.532529508648799e-14 -3.135726823345057e-16
  outer loop
    vertex 1.5 -187.6194915771484 -116.5097427368164
    vertex 1.5 -184.1694793701172 -119.3097381591797
    vertex 1.5 -184.1694793701172 -116.5097427368164
  endloop
endfacet
facet normal 1 -6.532529508648799e-14 -3.135726823345057e-16
  outer loop
    vertex 1.5 -184.1694793701172 -119.3097381591797
    vertex 1.5 -187.6194915771484 -116.5097427368164
    vertex 1.5 -203.469482421875 -119.3097381591797
  endloop
endfacet
facet normal 1 -6.532529508648799e-14 -3.135726823345057e-16
  outer loop
    vertex 1.5 -203.469482421875 -119.3097381591797
    vertex 1.5 -187.6194915771484 -116.5097427368164
    vertex 1.5 -200.0194854736328 -116.5097427368164
  endloop
endfacet
facet normal 1 -6.532529508648799e-14 -3.135726823345057e-16
  outer loop
    vertex 1.5 -200.0194854736328 -116.5097427368164
    vertex 1.5 -187.6194915771484 -116.5097427368164
    vertex 1.5 -200.0194854736328 -115.0097427368164
  endloop
endfacet
facet normal 1 -6.532529508648799e-14 -3.135726823345057e-16
  outer loop
    vertex 1.5 -203.469482421875 -119.3097381591797
    vertex 1.5 -200.0194854736328 -116.5097427368164
    vertex 1.5 -203.469482421875 -116.5097427368164
  endloop
endfacet
facet normal -1 6.535050278699828e-14 -3.308737044138857e-24
  outer loop
    vertex -6.039613253960852e-14 -206.8194885253906 -127.2097396850586
    vertex 1.637801005927031e-12 -180.8194885253906 -115.0097427368164
    vertex 1.637801005927031e-12 -180.8194885253906 -127.2097396850586
  endloop
endfacet
facet normal -1 6.535050278699828e-14 -3.308737044138857e-24
  outer loop
    vertex 1.637801005927031e-12 -180.8194885253906 -115.0097427368164
    vertex -6.039613253960852e-14 -206.8194885253906 -127.2097396850586
    vertex -6.039613253960852e-14 -206.8194885253906 -115.0097427368164
  endloop
endfacet
facet normal 6.535050278699828e-14 1 -2.220446049250313e-16
  outer loop
    vertex 1.5 -200.0194854736328 -115.0097427368164
    vertex 20 -200.0194854736328 -116.5097427368164
    vertex 1.5 -200.0194854736328 -116.5097427368164
  endloop
endfacet
facet normal 6.535050278699828e-14 1 -2.220446049250313e-16
  outer loop
    vertex 20 -200.0194854736328 -116.5097427368164
    vertex 1.5 -200.0194854736328 -115.0097427368164
    vertex 20 -200.0194854736328 -115.0097427368164
  endloop
endfacet
facet normal -3.308722450212111e-24 2.220446049250313e-16 1
  outer loop
    vertex 20 -184.1694793701172 -119.3097381591797
    vertex 15.14859580993652 -191.8850708007812 -119.3097381591797
    vertex 20 -203.469482421875 -119.3097381591797
  endloop
endfacet
facet normal -3.308722450212111e-24 2.220446049250313e-16 1
  outer loop
    vertex 15.14859580993652 -191.8850708007812 -119.3097381591797
    vertex 20 -184.1694793701172 -119.3097381591797
    vertex 14.47249794006348 -190.6184234619141 -119.3097381591797
  endloop
endfacet
facet normal -3.308722450212111e-24 2.220446049250313e-16 1
  outer loop
    vertex 14.47249794006348 -190.6184234619141 -119.3097381591797
    vertex 20 -184.1694793701172 -119.3097381591797
    vertex 13.49160671234131 -189.5699310302734 -119.3097381591797
  endloop
endfacet
facet normal -3.308722450212111e-24 2.220446049250313e-16 1
  outer loop
    vertex 13.49160671234131 -189.5699310302734 -119.3097381591797
    vertex 20 -184.1694793701172 -119.3097381591797
    vertex 12.27276802062988 -188.81103515625 -119.3097381591797
  endloop
endfacet
facet normal -3.308722450212111e-24 2.220446049250313e-16 1
  outer loop
    vertex 12.27276802062988 -188.81103515625 -119.3097381591797
    vertex 20 -184.1694793701172 -119.3097381591797
    vertex 1.5 -184.1694793701172 -119.3097381591797
  endloop
endfacet
facet normal -3.308722450212111e-24 2.220446049250313e-16 1
  outer loop
    vertex 20 -203.469482421875 -119.3097381591797
    vertex 15.14859580993652 -191.8850708007812 -119.3097381591797
    vertex 15.47382545471191 -193.2835388183594 -119.3097381591797
  endloop
endfacet
facet normal -3.308722450212111e-24 2.220446049250313e-16 1
  outer loop
    vertex 12.27276802062988 -188.81103515625 -119.3097381591797
    vertex 1.5 -184.1694793701172 -119.3097381591797
    vertex 10.89904403686523 -188.3934631347656 -119.3097381591797
  endloop
endfacet
facet normal -3.308722450212111e-24 2.220446049250313e-16 1
  outer loop
    vertex 10.89904403686523 -188.3934631347656 -119.3097381591797
    vertex 1.5 -184.1694793701172 -119.3097381591797
    vertex 9.464052200317383 -188.3456573486328 -119.3097381591797
  endloop
endfacet
facet normal -3.308722450212111e-24 2.220446049250313e-16 1
  outer loop
    vertex 9.464052200317383 -188.3456573486328 -119.3097381591797
    vertex 1.5 -184.1694793701172 -119.3097381591797
    vertex 8.065584182739258 -188.6708831787109 -119.3097381591797
  endloop
endfacet
facet normal -3.308722450212111e-24 2.220446049250313e-16 1
  outer loop
    vertex 8.065584182739258 -188.6708831787109 -119.3097381591797
    vertex 1.5 -184.1694793701172 -119.3097381591797
    vertex 6.798943042755127 -189.3469848632812 -119.3097381591797
  endloop
endfacet
facet normal -3.308722450212111e-24 2.220446049250313e-16 1
  outer loop
    vertex 6.798943042755127 -189.3469848632812 -119.3097381591797
    vertex 1.5 -184.1694793701172 -119.3097381591797
    vertex 5.750448703765869 -190.327880859375 -119.3097381591797
  endloop
endfacet
facet normal -3.308722450212111e-24 2.220446049250313e-16 1
  outer loop
    vertex 5.750448703765869 -190.327880859375 -119.3097381591797
    vertex 1.5 -184.1694793701172 -119.3097381591797
    vertex 4.991554737091064 -191.5467224121094 -119.3097381591797
  endloop
endfacet
facet normal -3.308722450212111e-24 2.220446049250313e-16 1
  outer loop
    vertex 4.991554737091064 -191.5467224121094 -119.3097381591797
    vertex 1.5 -184.1694793701172 -119.3097381591797
    vertex 4.573977470397949 -192.9204406738281 -119.3097381591797
  endloop
endfacet
facet normal -3.308722450212111e-24 2.220446049250313e-16 1
  outer loop
    vertex 4.573977470397949 -192.9204406738281 -119.3097381591797
    vertex 1.5 -184.1694793701172 -119.3097381591797
    vertex 4.526175022125244 -194.3554382324219 -119.3097381591797
  endloop
endfacet
facet normal -3.308722450212111e-24 2.220446049250313e-16 1
  outer loop
    vertex 20 -203.469482421875 -119.3097381591797
    vertex 11.93441581726074 -198.9680786132812 -119.3097381591797
    vertex 1.5 -203.469482421875 -119.3097381591797
  endloop
endfacet
facet normal -3.308722450212111e-24 2.220446049250313e-16 1
  outer loop
    vertex 11.93441581726074 -198.9680786132812 -119.3097381591797
    vertex 20 -203.469482421875 -119.3097381591797
    vertex 13.20105648040771 -198.2919769287109 -119.3097381591797
  endloop
endfacet
facet normal -3.308722450212111e-24 2.220446049250313e-16 1
  outer loop
    vertex 13.20105648040771 -198.2919769287109 -119.3097381591797
    vertex 20 -203.469482421875 -119.3097381591797
    vertex 14.24955081939697 -197.3110961914062 -119.3097381591797
  endloop
endfacet
facet normal -3.308722450212111e-24 2.220446049250313e-16 1
  outer loop
    vertex 14.24955081939697 -197.3110961914062 -119.3097381591797
    vertex 20 -203.469482421875 -119.3097381591797
    vertex 15.00844573974609 -196.0922546386719 -119.3097381591797
  endloop
endfacet
facet normal -3.308722450212111e-24 2.220446049250313e-16 1
  outer loop
    vertex 15.00844573974609 -196.0922546386719 -119.3097381591797
    vertex 20 -203.469482421875 -119.3097381591797
    vertex 15.42602252960205 -194.7185211181641 -119.3097381591797
  endloop
endfacet
facet normal -3.308722450212111e-24 2.220446049250313e-16 1
  outer loop
    vertex 15.42602252960205 -194.7185211181641 -119.3097381591797
    vertex 20 -203.469482421875 -119.3097381591797
    vertex 15.47382545471191 -193.2835388183594 -119.3097381591797
  endloop
endfacet
facet normal -3.308722450212111e-24 2.220446049250313e-16 1
  outer loop
    vertex 1.5 -203.469482421875 -119.3097381591797
    vertex 11.93441581726074 -198.9680786132812 -119.3097381591797
    vertex 10.53594779968262 -199.2933044433594 -119.3097381591797
  endloop
endfacet
facet normal -3.308722450212111e-24 2.220446049250313e-16 1
  outer loop
    vertex 1.5 -203.469482421875 -119.3097381591797
    vertex 10.53594779968262 -199.2933044433594 -119.3097381591797
    vertex 9.100955963134766 -199.2455139160156 -119.3097381591797
  endloop
endfacet
facet normal -3.308722450212111e-24 2.220446049250313e-16 1
  outer loop
    vertex 1.5 -203.469482421875 -119.3097381591797
    vertex 9.100955963134766 -199.2455139160156 -119.3097381591797
    vertex 7.727231979370117 -198.8279266357422 -119.3097381591797
  endloop
endfacet
facet normal -3.308722450212111e-24 2.220446049250313e-16 1
  outer loop
    vertex 1.5 -203.469482421875 -119.3097381591797
    vertex 7.727231979370117 -198.8279266357422 -119.3097381591797
    vertex 6.50839376449585 -198.0690307617188 -119.3097381591797
  endloop
endfacet
facet normal -3.308722450212111e-24 2.220446049250313e-16 1
  outer loop
    vertex 1.5 -203.469482421875 -119.3097381591797
    vertex 6.50839376449585 -198.0690307617188 -119.3097381591797
    vertex 5.527502536773682 -197.0205383300781 -119.3097381591797
  endloop
endfacet
facet normal -3.308722450212111e-24 2.220446049250313e-16 1
  outer loop
    vertex 1.5 -203.469482421875 -119.3097381591797
    vertex 5.527502536773682 -197.0205383300781 -119.3097381591797
    vertex 4.851404666900635 -195.75390625 -119.3097381591797
  endloop
endfacet
facet normal -3.308722450212111e-24 2.220446049250313e-16 1
  outer loop
    vertex 1.5 -203.469482421875 -119.3097381591797
    vertex 4.851404666900635 -195.75390625 -119.3097381591797
    vertex 4.526175022125244 -194.3554382324219 -119.3097381591797
  endloop
endfacet
facet normal -3.308722450212111e-24 2.220446049250313e-16 1
  outer loop
    vertex 1.5 -203.469482421875 -119.3097381591797
    vertex 4.526175022125244 -194.3554382324219 -119.3097381591797
    vertex 1.5 -184.1694793701172 -119.3097381591797
  endloop
endfacet
facet normal -6.535050278699828e-14 -1 2.220446049250313e-16
  outer loop
    vertex 20 -187.6194915771484 -115.0097427368164
    vertex 1.5 -187.6194915771484 -116.5097427368164
    vertex 20 -187.6194915771484 -116.5097427368164
  endloop
endfacet
facet normal -6.535050278699828e-14 -1 2.220446049250313e-16
  outer loop
    vertex 1.5 -187.6194915771484 -116.5097427368164
    vertex 20 -187.6194915771484 -115.0097427368164
    vertex 1.5 -187.6194915771484 -115.0097427368164
  endloop
endfacet
facet normal 0 0 -1
  outer loop
    vertex 20 -206.8194885253906 -127.2097396850586
    vertex 12.43139457702637 -195.2081298828125 -127.2097396850586
    vertex 20 -180.8194885253906 -127.2097396850586
  endloop
endfacet
facet normal 0 0 -1
  outer loop
    vertex 12.43139457702637 -195.2081298828125 -127.2097396850586
    vertex 20 -206.8194885253906 -127.2097396850586
    vertex 11.98914051055908 -195.7901000976562 -127.2097396850586
  endloop
endfacet
facet normal 0 0 -1
  outer loop
    vertex 11.98914051055908 -195.7901000976562 -127.2097396850586
    vertex 20 -206.8194885253906 -127.2097396850586
    vertex -6.039613253960852e-14 -206.8194885253906 -127.2097396850586
  endloop
endfacet
facet normal 0 0 -1
  outer loop
    vertex 20 -180.8194885253906 -127.2097396850586
    vertex 12.43139457702637 -195.2081298828125 -127.2097396850586
    vertex 12.70795345306396 -194.5315093994141 -127.2097396850586
  endloop
endfacet
facet normal 0 0 -1
  outer loop
    vertex 20 -180.8194885253906 -127.2097396850586
    vertex 12.70795345306396 -194.5315093994141 -127.2097396850586
    vertex 12.79996967315674 -193.8063812255859 -127.2097396850586
  endloop
endfacet
facet normal 0 0 -1
  outer loop
    vertex 11.98914051055908 -195.7901000976562 -127.2097396850586
    vertex -6.039613253960852e-14 -206.8194885253906 -127.2097396850586
    vertex 11.41132926940918 -196.2377777099609 -127.2097396850586
  endloop
endfacet
facet normal 0 0 -1
  outer loop
    vertex 11.41132926940918 -196.2377777099609 -127.2097396850586
    vertex -6.039613253960852e-14 -206.8194885253906 -127.2097396850586
    vertex 10.73733901977539 -196.5206604003906 -127.2097396850586
  endloop
endfacet
facet normal 0 0 -1
  outer loop
    vertex 10.73733901977539 -196.5206604003906 -127.2097396850586
    vertex -6.039613253960852e-14 -206.8194885253906 -127.2097396850586
    vertex 10.01309967041016 -196.6194610595703 -127.2097396850586
  endloop
endfacet
facet normal 0 0 -1
  outer loop
    vertex 10.01309967041016 -196.6194610595703 -127.2097396850586
    vertex -6.039613253960852e-14 -206.8194885253906 -127.2097396850586
    vertex 9.287967681884766 -196.5274353027344 -127.2097396850586
  endloop
endfacet
facet normal 0 0 -1
  outer loop
    vertex 9.287967681884766 -196.5274353027344 -127.2097396850586
    vertex -6.039613253960852e-14 -206.8194885253906 -127.2097396850586
    vertex 8.611360549926758 -196.2508850097656 -127.2097396850586
  endloop
endfacet
facet normal 0 0 -1
  outer loop
    vertex 8.611360549926758 -196.2508850097656 -127.2097396850586
    vertex -6.039613253960852e-14 -206.8194885253906 -127.2097396850586
    vertex 8.029385566711426 -195.8086242675781 -127.2097396850586
  endloop
endfacet
facet normal 0 0 -1
  outer loop
    vertex 8.029385566711426 -195.8086242675781 -127.2097396850586
    vertex -6.039613253960852e-14 -206.8194885253906 -127.2097396850586
    vertex 7.581705093383789 -195.2308197021484 -127.2097396850586
  endloop
endfacet
facet normal 0 0 -1
  outer loop
    vertex 7.581705093383789 -195.2308197021484 -127.2097396850586
    vertex -6.039613253960852e-14 -206.8194885253906 -127.2097396850586
    vertex 7.298827648162842 -194.5568237304688 -127.2097396850586
  endloop
endfacet
facet normal 0 0 -1
  outer loop
    vertex 7.298827648162842 -194.5568237304688 -127.2097396850586
    vertex -6.039613253960852e-14 -206.8194885253906 -127.2097396850586
    vertex 7.20003080368042 -193.8325805664062 -127.2097396850586
  endloop
endfacet
facet normal 0 0 -1
  outer loop
    vertex 20 -180.8194885253906 -127.2097396850586
    vertex 11.97061443328857 -191.8303375244141 -127.2097396850586
    vertex 1.637801005927031e-12 -180.8194885253906 -127.2097396850586
  endloop
endfacet
facet normal 0 0 -1
  outer loop
    vertex 11.97061443328857 -191.8303375244141 -127.2097396850586
    vertex 20 -180.8194885253906 -127.2097396850586
    vertex 12.41829490661621 -192.4081573486328 -127.2097396850586
  endloop
endfacet
facet normal 0 0 -1
  outer loop
    vertex 12.41829490661621 -192.4081573486328 -127.2097396850586
    vertex 20 -180.8194885253906 -127.2097396850586
    vertex 12.701171875 -193.0821380615234 -127.2097396850586
  endloop
endfacet
facet normal 0 0 -1
  outer loop
    vertex 12.701171875 -193.0821380615234 -127.2097396850586
    vertex 20 -180.8194885253906 -127.2097396850586
    vertex 12.79996967315674 -193.8063812255859 -127.2097396850586
  endloop
endfacet
facet normal 0 0 -1
  outer loop
    vertex 1.637801005927031e-12 -180.8194885253906 -127.2097396850586
    vertex 11.97061443328857 -191.8303375244141 -127.2097396850586
    vertex 11.38863945007324 -191.3880920410156 -127.2097396850586
  endloop
endfacet
facet normal 0 0 -1
  outer loop
    vertex 1.637801005927031e-12 -180.8194885253906 -127.2097396850586
    vertex 11.38863945007324 -191.3880920410156 -127.2097396850586
    vertex 10.71203231811523 -191.1115264892578 -127.2097396850586
  endloop
endfacet
facet normal 0 0 -1
  outer loop
    vertex 1.637801005927031e-12 -180.8194885253906 -127.2097396850586
    vertex 10.71203231811523 -191.1115264892578 -127.2097396850586
    vertex 9.986900329589844 -191.0195159912109 -127.2097396850586
  endloop
endfacet
facet normal 0 0 -1
  outer loop
    vertex 1.637801005927031e-12 -180.8194885253906 -127.2097396850586
    vertex 9.986900329589844 -191.0195159912109 -127.2097396850586
    vertex 9.262660980224609 -191.1183166503906 -127.2097396850586
  endloop
endfacet
facet normal 0 0 -1
  outer loop
    vertex 1.637801005927031e-12 -180.8194885253906 -127.2097396850586
    vertex 9.262660980224609 -191.1183166503906 -127.2097396850586
    vertex 8.58867073059082 -191.4011840820312 -127.2097396850586
  endloop
endfacet
facet normal 0 0 -1
  outer loop
    vertex 1.637801005927031e-12 -180.8194885253906 -127.2097396850586
    vertex 8.58867073059082 -191.4011840820312 -127.2097396850586
    vertex 8.010859489440918 -191.848876953125 -127.2097396850586
  endloop
endfacet
facet normal 0 0 -1
  outer loop
    vertex 1.637801005927031e-12 -180.8194885253906 -127.2097396850586
    vertex 8.010859489440918 -191.848876953125 -127.2097396850586
    vertex 7.568605422973633 -192.4308471679688 -127.2097396850586
  endloop
endfacet
facet normal 0 0 -1
  outer loop
    vertex 1.637801005927031e-12 -180.8194885253906 -127.2097396850586
    vertex 7.568605422973633 -192.4308471679688 -127.2097396850586
    vertex 7.292047023773193 -193.1074523925781 -127.2097396850586
  endloop
endfacet
facet normal 0 0 -1
  outer loop
    vertex 1.637801005927031e-12 -180.8194885253906 -127.2097396850586
    vertex 7.292047023773193 -193.1074523925781 -127.2097396850586
    vertex 7.20003080368042 -193.8325805664062 -127.2097396850586
  endloop
endfacet
facet normal 0 0 -1
  outer loop
    vertex 1.637801005927031e-12 -180.8194885253906 -127.2097396850586
    vertex 7.20003080368042 -193.8325805664062 -127.2097396850586
    vertex -6.039613253960852e-14 -206.8194885253906 -127.2097396850586
  endloop
endfacet
facet normal -6.535050278699828e-14 -1 2.220446049250313e-16
  outer loop
    vertex 20 -206.8194885253906 -115.0097427368164
    vertex -6.039613253960852e-14 -206.8194885253906 -127.2097396850586
    vertex 20 -206.8194885253906 -127.2097396850586
  endloop
endfacet
facet normal -6.535050278699828e-14 -1 2.220446049250313e-16
  outer loop
    vertex -6.039613253960852e-14 -206.8194885253906 -127.2097396850586
    vertex 20 -206.8194885253906 -115.0097427368164
    vertex -6.039613253960852e-14 -206.8194885253906 -115.0097427368164
  endloop
endfacet
facet normal -8.097917871520604e-18 7.325839200641082e-16 1
  outer loop
    vertex 1.637801005927031e-12 -180.8194885253906 -115.0097427368164
    vertex 20 -187.6194915771484 -115.0097427368164
    vertex 20 -180.8194885253906 -115.0097427368164
  endloop
endfacet
facet normal -8.097917871520604e-18 7.325839200641082e-16 1
  outer loop
    vertex 20 -187.6194915771484 -115.0097427368164
    vertex 1.637801005927031e-12 -180.8194885253906 -115.0097427368164
    vertex 1.5 -187.6194915771484 -115.0097427368164
  endloop
endfacet
facet normal -8.097917871520604e-18 7.325839200641082e-16 1
  outer loop
    vertex 1.5 -187.6194915771484 -115.0097427368164
    vertex 1.637801005927031e-12 -180.8194885253906 -115.0097427368164
    vertex 1.5 -200.0194854736328 -115.0097427368164
  endloop
endfacet
facet normal -8.097917871520604e-18 7.325839200641082e-16 1
  outer loop
    vertex 1.5 -200.0194854736328 -115.0097427368164
    vertex 20 -206.8194885253906 -115.0097427368164
    vertex 20 -200.0194854736328 -115.0097427368164
  endloop
endfacet
facet normal -8.097917871520604e-18 7.325839200641082e-16 1
  outer loop
    vertex 20 -206.8194885253906 -115.0097427368164
    vertex 1.5 -200.0194854736328 -115.0097427368164
    vertex -6.039613253960852e-14 -206.8194885253906 -115.0097427368164
  endloop
endfacet
facet normal -8.097917871520604e-18 7.325839200641082e-16 1
  outer loop
    vertex -6.039613253960852e-14 -206.8194885253906 -115.0097427368164
    vertex 1.5 -200.0194854736328 -115.0097427368164
    vertex 1.637801005927031e-12 -180.8194885253906 -115.0097427368164
  endloop
endfacet
facet normal 1 -6.535050278699828e-14 3.308737044138857e-24
  outer loop
    vertex 20 -180.8194885253906 -115.0097427368164
    vertex 20 -184.1694793701172 -116.5097427368164
    vertex 20 -180.8194885253906 -127.2097396850586
  endloop
endfacet
facet normal 1 -6.535050278699828e-14 3.308737044138857e-24
  outer loop
    vertex 20 -184.1694793701172 -116.5097427368164
    vertex 20 -180.8194885253906 -115.0097427368164
    vertex 20 -187.6194915771484 -115.0097427368164
  endloop
endfacet
facet normal 1 -6.535050278699828e-14 3.308737044138857e-24
  outer loop
    vertex 20 -184.1694793701172 -116.5097427368164
    vertex 20 -187.6194915771484 -115.0097427368164
    vertex 20 -187.6194915771484 -116.5097427368164
  endloop
endfacet
facet normal 1 -6.535050278699828e-14 3.308737044138857e-24
  outer loop
    vertex 20 -206.8194885253906 -115.0097427368164
    vertex 20 -200.0194854736328 -116.5097427368164
    vertex 20 -200.0194854736328 -115.0097427368164
  endloop
endfacet
facet normal 1 -6.535050278699828e-14 3.308737044138857e-24
  outer loop
    vertex 20 -200.0194854736328 -116.5097427368164
    vertex 20 -206.8194885253906 -115.0097427368164
    vertex 20 -203.469482421875 -116.5097427368164
  endloop
endfacet
facet normal 1 -6.535050278699828e-14 3.308737044138857e-24
  outer loop
    vertex 20 -203.469482421875 -116.5097427368164
    vertex 20 -206.8194885253906 -115.0097427368164
    vertex 20 -203.469482421875 -119.3097381591797
  endloop
endfacet
facet normal 1 -6.535050278699828e-14 3.308737044138857e-24
  outer loop
    vertex 20 -180.8194885253906 -127.2097396850586
    vertex 20 -184.1694793701172 -119.3097381591797
    vertex 20 -206.8194885253906 -127.2097396850586
  endloop
endfacet
facet normal 1 -6.535050278699828e-14 3.308737044138857e-24
  outer loop
    vertex 20 -184.1694793701172 -119.3097381591797
    vertex 20 -180.8194885253906 -127.2097396850586
    vertex 20 -184.1694793701172 -116.5097427368164
  endloop
endfacet
facet normal 1 -6.535050278699828e-14 3.308737044138857e-24
  outer loop
    vertex 20 -206.8194885253906 -127.2097396850586
    vertex 20 -184.1694793701172 -119.3097381591797
    vertex 20 -203.469482421875 -119.3097381591797
  endloop
endfacet
facet normal 1 -6.535050278699828e-14 3.308737044138857e-24
  outer loop
    vertex 20 -206.8194885253906 -127.2097396850586
    vertex 20 -203.469482421875 -119.3097381591797
    vertex 20 -206.8194885253906 -115.0097427368164
  endloop
endfacet
facet normal 6.535050278699828e-14 1 -2.220446049250313e-16
  outer loop
    vertex 1.637801005927031e-12 -180.8194885253906 -115.0097427368164
    vertex 20 -180.8194885253906 -127.2097396850586
    vertex 1.637801005927031e-12 -180.8194885253906 -127.2097396850586
  endloop
endfacet
facet normal 6.535050278699828e-14 1 -2.220446049250313e-16
  outer loop
    vertex 20 -180.8194885253906 -127.2097396850586
    vertex 1.637801005927031e-12 -180.8194885253906 -115.0097427368164
    vertex 20 -180.8194885253906 -115.0097427368164
  endloop
endfacet
facet normal 6.535050278699828e-14 1 -2.220446049250313e-16
  outer loop
    vertex 1.5 -203.469482421875 -116.5097427368164
    vertex 20 -203.469482421875 -119.3097381591797
    vertex 1.5 -203.469482421875 -119.3097381591797
  endloop
endfacet
facet normal 6.535050278699828e-14 1 -2.220446049250313e-16
  outer loop
    vertex 20 -203.469482421875 -119.3097381591797
    vertex 1.5 -203.469482421875 -116.5097427368164
    vertex 20 -203.469482421875 -116.5097427368164
  endloop
endfacet
facet normal -6.535050278699828e-14 -1 2.220446049250313e-16
  outer loop
    vertex 20 -184.1694793701172 -116.5097427368164
    vertex 1.5 -184.1694793701172 -119.3097381591797
    vertex 20 -184.1694793701172 -119.3097381591797
  endloop
endfacet
facet normal -6.535050278699828e-14 -1 2.220446049250313e-16
  outer loop
    vertex 1.5 -184.1694793701172 -119.3097381591797
    vertex 20 -184.1694793701172 -116.5097427368164
    vertex 1.5 -184.1694793701172 -116.5097427368164
  endloop
endfacet
facet normal 0 0 -1
  outer loop
    vertex 20 -203.469482421875 -116.5097427368164
    vertex 1.5 -200.0194854736328 -116.5097427368164
    vertex 20 -200.0194854736328 -116.5097427368164
  endloop
endfacet
facet normal 0 0 -1
  outer loop
    vertex 1.5 -200.0194854736328 -116.5097427368164
    vertex 20 -203.469482421875 -116.5097427368164
    vertex 1.5 -203.469482421875 -116.5097427368164
  endloop
endfacet
facet normal 0 0 -1
  outer loop
    vertex 1.5 -187.6194915771484 -116.5097427368164
    vertex 20 -184.1694793701172 -116.5097427368164
    vertex 20 -187.6194915771484 -116.5097427368164
  endloop
endfacet
facet normal 0 0 -1
  outer loop
    vertex 20 -184.1694793701172 -116.5097427368164
    vertex 1.5 -187.6194915771484 -116.5097427368164
    vertex 1.5 -184.1694793701172 -116.5097427368164
  endloop
endfacet
facet normal -0.3783568739891052 -0.9256598353385925 7.764379047633296e-31
  outer loop
    vertex 11.38863945007324 -191.3880920410156 -121.3097381591797
    vertex 10.71203231811523 -191.1115264892578 -127.2097396850586
    vertex 11.38863945007324 -191.3880920410156 -127.2097396850586
  endloop
endfacet
facet normal -0.3783568739891052 -0.9256598353385925 7.764379047633296e-31
  outer loop
    vertex 10.71203231811523 -191.1115264892578 -127.2097396850586
    vertex 11.38863945007324 -191.3880920410156 -121.3097381591797
    vertex 10.71203231811523 -191.1115264892578 -121.3097381591797
  endloop
endfacet
facet normal -0.1258862763643265 -0.9920446872711182 2.48460126703079e-31
  outer loop
    vertex 10.71203231811523 -191.1115264892578 -121.3097381591797
    vertex 9.986900329589844 -191.0195159912109 -127.2097396850586
    vertex 10.71203231811523 -191.1115264892578 -127.2097396850586
  endloop
endfacet
facet normal -0.1258862763643265 -0.9920446872711182 2.48460126703079e-31
  outer loop
    vertex 9.986900329589844 -191.0195159912109 -127.2097396850586
    vertex 10.71203231811523 -191.1115264892578 -121.3097381591797
    vertex 9.986900329589844 -191.0195159912109 -121.3097381591797
  endloop
endfacet
facet normal 0.1351632475852966 -0.9908233284950256 -3.10575152501377e-31
  outer loop
    vertex 9.986900329589844 -191.0195159912109 -121.3097381591797
    vertex 9.262660980224609 -191.1183166503906 -127.2097396850586
    vertex 9.986900329589844 -191.0195159912109 -127.2097396850586
  endloop
endfacet
facet normal 0.1351632475852966 -0.9908233284950256 -3.10575152501377e-31
  outer loop
    vertex 9.262660980224609 -191.1183166503906 -127.2097396850586
    vertex 9.986900329589844 -191.0195159912109 -121.3097381591797
    vertex 9.262660980224609 -191.1183166503906 -121.3097381591797
  endloop
endfacet
facet normal 0.387001633644104 -0.9220790266990662 -8.074954059075351e-31
  outer loop
    vertex 9.262660980224609 -191.1183166503906 -121.3097381591797
    vertex 8.58867073059082 -191.4011840820312 -127.2097396850586
    vertex 9.262660980224609 -191.1183166503906 -127.2097396850586
  endloop
endfacet
facet normal 0.387001633644104 -0.9220790266990662 -8.074954059075351e-31
  outer loop
    vertex 8.58867073059082 -191.4011840820312 -127.2097396850586
    vertex 9.262660980224609 -191.1183166503906 -121.3097381591797
    vertex 8.58867073059082 -191.4011840820312 -121.3097381591797
  endloop
endfacet
facet normal 0.6124664545059204 -0.7904965877532959 -1.242300610005508e-30
  outer loop
    vertex 8.58867073059082 -191.4011840820312 -121.3097381591797
    vertex 8.010859489440918 -191.848876953125 -127.2097396850586
    vertex 8.58867073059082 -191.4011840820312 -127.2097396850586
  endloop
endfacet
facet normal 0.6124664545059204 -0.7904965877532959 -1.242300610005508e-30
  outer loop
    vertex 8.010859489440918 -191.848876953125 -127.2097396850586
    vertex 8.58867073059082 -191.4011840820312 -121.3097381591797
    vertex 8.010859489440918 -191.848876953125 -121.3097381591797
  endloop
endfacet
facet normal 0.7961927652359009 -0.6050430536270142 -1.646048312959276e-30
  outer loop
    vertex 7.568605422973633 -192.4308471679688 -121.3097381591797
    vertex 8.010859489440918 -191.848876953125 -127.2097396850586
    vertex 8.010859489440918 -191.848876953125 -121.3097381591797
  endloop
endfacet
facet normal 0.7961927652359009 -0.6050430536270142 -1.646048312959276e-30
  outer loop
    vertex 8.010859489440918 -191.848876953125 -127.2097396850586
    vertex 7.568605422973633 -192.4308471679688 -121.3097381591797
    vertex 7.568605422973633 -192.4308471679688 -127.2097396850586
  endloop
endfacet
facet normal 0.9256598353385925 -0.3783568739891052 -1.878979759619913e-30
  outer loop
    vertex 7.292047023773193 -193.1074523925781 -121.3097381591797
    vertex 7.568605422973633 -192.4308471679688 -127.2097396850586
    vertex 7.568605422973633 -192.4308471679688 -121.3097381591797
  endloop
endfacet
facet normal 0.9256598353385925 -0.3783568739891052 -1.878979759619913e-30
  outer loop
    vertex 7.568605422973633 -192.4308471679688 -127.2097396850586
    vertex 7.292047023773193 -193.1074523925781 -121.3097381591797
    vertex 7.292047023773193 -193.1074523925781 -127.2097396850586
  endloop
endfacet
facet normal 0.9920446872711182 -0.1258862763643265 -2.014856374145586e-30
  outer loop
    vertex 7.20003080368042 -193.8325805664062 -121.3097381591797
    vertex 7.292047023773193 -193.1074523925781 -127.2097396850586
    vertex 7.292047023773193 -193.1074523925781 -121.3097381591797
  endloop
endfacet
facet normal 0.9920446872711182 -0.1258862763643265 -2.014856374145586e-30
  outer loop
    vertex 7.292047023773193 -193.1074523925781 -127.2097396850586
    vertex 7.20003080368042 -193.8325805664062 -121.3097381591797
    vertex 7.20003080368042 -193.8325805664062 -127.2097396850586
  endloop
endfacet
facet normal 0.9908233284950256 0.1351632475852966 -2.010974233522334e-30
  outer loop
    vertex 7.298827648162842 -194.5568237304688 -121.3097381591797
    vertex 7.20003080368042 -193.8325805664062 -127.2097396850586
    vertex 7.20003080368042 -193.8325805664062 -121.3097381591797
  endloop
endfacet
facet normal 0.9908233284950256 0.1351632475852966 -2.010974233522334e-30
  outer loop
    vertex 7.20003080368042 -193.8325805664062 -127.2097396850586
    vertex 7.298827648162842 -194.5568237304688 -121.3097381591797
    vertex 7.298827648162842 -194.5568237304688 -127.2097396850586
  endloop
endfacet
facet normal 0.9220790266990662 0.387001633644104 -1.878979759619913e-30
  outer loop
    vertex 7.581705093383789 -195.2308197021484 -121.3097381591797
    vertex 7.298827648162842 -194.5568237304688 -127.2097396850586
    vertex 7.298827648162842 -194.5568237304688 -121.3097381591797
  endloop
endfacet
facet normal 0.9220790266990662 0.387001633644104 -1.878979759619913e-30
  outer loop
    vertex 7.298827648162842 -194.5568237304688 -127.2097396850586
    vertex 7.581705093383789 -195.2308197021484 -121.3097381591797
    vertex 7.581705093383789 -195.2308197021484 -127.2097396850586
  endloop
endfacet
facet normal 0.7904965877532959 0.6124664545059204 -1.583933310670865e-30
  outer loop
    vertex 8.029385566711426 -195.8086242675781 -121.3097381591797
    vertex 7.581705093383789 -195.2308197021484 -127.2097396850586
    vertex 7.581705093383789 -195.2308197021484 -121.3097381591797
  endloop
endfacet
facet normal 0.7904965877532959 0.6124664545059204 -1.583933310670865e-30
  outer loop
    vertex 7.581705093383789 -195.2308197021484 -127.2097396850586
    vertex 8.029385566711426 -195.8086242675781 -121.3097381591797
    vertex 8.029385566711426 -195.8086242675781 -127.2097396850586
  endloop
endfacet
facet normal 0.6050430536270142 0.7961927652359009 -1.211243108861303e-30
  outer loop
    vertex 8.029385566711426 -195.8086242675781 -121.3097381591797
    vertex 8.611360549926758 -196.2508850097656 -127.2097396850586
    vertex 8.029385566711426 -195.8086242675781 -127.2097396850586
  endloop
endfacet
facet normal 0.6050430536270142 0.7961927652359009 -1.211243108861303e-30
  outer loop
    vertex 8.611360549926758 -196.2508850097656 -127.2097396850586
    vertex 8.029385566711426 -195.8086242675781 -121.3097381591797
    vertex 8.611360549926758 -196.2508850097656 -121.3097381591797
  endloop
endfacet
facet normal 0.3783568739891052 0.9256598353385925 -7.764379047633296e-31
  outer loop
    vertex 8.611360549926758 -196.2508850097656 -121.3097381591797
    vertex 9.287967681884766 -196.5274353027344 -127.2097396850586
    vertex 8.611360549926758 -196.2508850097656 -127.2097396850586
  endloop
endfacet
facet normal 0.3783568739891052 0.9256598353385925 -7.764379047633296e-31
  outer loop
    vertex 9.287967681884766 -196.5274353027344 -127.2097396850586
    vertex 8.611360549926758 -196.2508850097656 -121.3097381591797
    vertex 9.287967681884766 -196.5274353027344 -121.3097381591797
  endloop
endfacet
facet normal 0.1258862763643265 0.9920446872711182 -2.48460126703079e-31
  outer loop
    vertex 9.287967681884766 -196.5274353027344 -121.3097381591797
    vertex 10.01309967041016 -196.6194610595703 -127.2097396850586
    vertex 9.287967681884766 -196.5274353027344 -127.2097396850586
  endloop
endfacet
facet normal 0.1258862763643265 0.9920446872711182 -2.48460126703079e-31
  outer loop
    vertex 10.01309967041016 -196.6194610595703 -127.2097396850586
    vertex 9.287967681884766 -196.5274353027344 -121.3097381591797
    vertex 10.01309967041016 -196.6194610595703 -121.3097381591797
  endloop
endfacet
facet normal -0.1351632475852966 0.9908233284950256 3.10575152501377e-31
  outer loop
    vertex 10.01309967041016 -196.6194610595703 -121.3097381591797
    vertex 10.73733901977539 -196.5206604003906 -127.2097396850586
    vertex 10.01309967041016 -196.6194610595703 -127.2097396850586
  endloop
endfacet
facet normal -0.1351632475852966 0.9908233284950256 3.10575152501377e-31
  outer loop
    vertex 10.73733901977539 -196.5206604003906 -127.2097396850586
    vertex 10.01309967041016 -196.6194610595703 -121.3097381591797
    vertex 10.73733901977539 -196.5206604003906 -121.3097381591797
  endloop
endfacet
facet normal -0.387001633644104 0.9220790266990662 8.074954059075351e-31
  outer loop
    vertex 10.73733901977539 -196.5206604003906 -121.3097381591797
    vertex 11.41132926940918 -196.2377777099609 -127.2097396850586
    vertex 10.73733901977539 -196.5206604003906 -127.2097396850586
  endloop
endfacet
facet normal -0.387001633644104 0.9220790266990662 8.074954059075351e-31
  outer loop
    vertex 11.41132926940918 -196.2377777099609 -127.2097396850586
    vertex 10.73733901977539 -196.5206604003906 -121.3097381591797
    vertex 11.41132926940918 -196.2377777099609 -121.3097381591797
  endloop
endfacet
facet normal -0.6124664545059204 0.7904965877532959 1.242300610005508e-30
  outer loop
    vertex 11.41132926940918 -196.2377777099609 -121.3097381591797
    vertex 11.98914051055908 -195.7901000976562 -127.2097396850586
    vertex 11.41132926940918 -196.2377777099609 -127.2097396850586
  endloop
endfacet
facet normal -0.6124664545059204 0.7904965877532959 1.242300610005508e-30
  outer loop
    vertex 11.98914051055908 -195.7901000976562 -127.2097396850586
    vertex 11.41132926940918 -196.2377777099609 -121.3097381591797
    vertex 11.98914051055908 -195.7901000976562 -121.3097381591797
  endloop
endfacet
facet normal -0.7961927652359009 0.6050430536270142 1.646048312959276e-30
  outer loop
    vertex 11.98914051055908 -195.7901000976562 -127.2097396850586
    vertex 12.43139457702637 -195.2081298828125 -121.3097381591797
    vertex 12.43139457702637 -195.2081298828125 -127.2097396850586
  endloop
endfacet
facet normal -0.7961927652359009 0.6050430536270142 1.646048312959276e-30
  outer loop
    vertex 12.43139457702637 -195.2081298828125 -121.3097381591797
    vertex 11.98914051055908 -195.7901000976562 -127.2097396850586
    vertex 11.98914051055908 -195.7901000976562 -121.3097381591797
  endloop
endfacet
facet normal -0.9256598353385925 0.3783568739891052 1.878979759619913e-30
  outer loop
    vertex 12.43139457702637 -195.2081298828125 -127.2097396850586
    vertex 12.70795345306396 -194.5315093994141 -121.3097381591797
    vertex 12.70795345306396 -194.5315093994141 -127.2097396850586
  endloop
endfacet
facet normal -0.9256598353385925 0.3783568739891052 1.878979759619913e-30
  outer loop
    vertex 12.70795345306396 -194.5315093994141 -121.3097381591797
    vertex 12.43139457702637 -195.2081298828125 -127.2097396850586
    vertex 12.43139457702637 -195.2081298828125 -121.3097381591797
  endloop
endfacet
facet normal -0.9920446872711182 0.1258862763643265 2.014856374145586e-30
  outer loop
    vertex 12.70795345306396 -194.5315093994141 -127.2097396850586
    vertex 12.79996967315674 -193.8063812255859 -121.3097381591797
    vertex 12.79996967315674 -193.8063812255859 -127.2097396850586
  endloop
endfacet
facet normal -0.9920446872711182 0.1258862763643265 2.014856374145586e-30
  outer loop
    vertex 12.79996967315674 -193.8063812255859 -121.3097381591797
    vertex 12.70795345306396 -194.5315093994141 -127.2097396850586
    vertex 12.70795345306396 -194.5315093994141 -121.3097381591797
  endloop
endfacet
facet normal -0.9908233284950256 -0.1351632475852966 2.010974233522334e-30
  outer loop
    vertex 12.79996967315674 -193.8063812255859 -127.2097396850586
    vertex 12.701171875 -193.0821380615234 -121.3097381591797
    vertex 12.701171875 -193.0821380615234 -127.2097396850586
  endloop
endfacet
facet normal -0.9908233284950256 -0.1351632475852966 2.010974233522334e-30
  outer loop
    vertex 12.701171875 -193.0821380615234 -121.3097381591797
    vertex 12.79996967315674 -193.8063812255859 -127.2097396850586
    vertex 12.79996967315674 -193.8063812255859 -121.3097381591797
  endloop
endfacet
facet normal -0.9220790266990662 -0.387001633644104 1.894508510192016e-30
  outer loop
    vertex 12.701171875 -193.0821380615234 -127.2097396850586
    vertex 12.41829490661621 -192.4081573486328 -121.3097381591797
    vertex 12.41829490661621 -192.4081573486328 -127.2097396850586
  endloop
endfacet
facet normal -0.9220790266990662 -0.387001633644104 1.894508510192016e-30
  outer loop
    vertex 12.41829490661621 -192.4081573486328 -121.3097381591797
    vertex 12.701171875 -193.0821380615234 -127.2097396850586
    vertex 12.701171875 -193.0821380615234 -121.3097381591797
  endloop
endfacet
facet normal -0.7904965877532959 -0.6124664545059204 1.599462061242967e-30
  outer loop
    vertex 12.41829490661621 -192.4081573486328 -127.2097396850586
    vertex 11.97061443328857 -191.8303375244141 -121.3097381591797
    vertex 11.97061443328857 -191.8303375244141 -127.2097396850586
  endloop
endfacet
facet normal -0.7904965877532959 -0.6124664545059204 1.599462061242967e-30
  outer loop
    vertex 11.97061443328857 -191.8303375244141 -121.3097381591797
    vertex 12.41829490661621 -192.4081573486328 -127.2097396850586
    vertex 12.41829490661621 -192.4081573486328 -121.3097381591797
  endloop
endfacet
facet normal -0.6050430536270142 -0.7961927652359009 1.211243108861303e-30
  outer loop
    vertex 11.97061443328857 -191.8303375244141 -121.3097381591797
    vertex 11.38863945007324 -191.3880920410156 -127.2097396850586
    vertex 11.97061443328857 -191.8303375244141 -127.2097396850586
  endloop
endfacet
facet normal -0.6050430536270142 -0.7961927652359009 1.211243108861303e-30
  outer loop
    vertex 11.38863945007324 -191.3880920410156 -127.2097396850586
    vertex 11.97061443328857 -191.8303375244141 -121.3097381591797
    vertex 11.38863945007324 -191.3880920410156 -121.3097381591797
  endloop
endfacet
facet normal -1.31441502551885e-30 0 1
  outer loop
    vertex 15.14859580993652 -191.8850708007812 -121.3097381591797
    vertex 15.42602252960205 -194.7185211181641 -121.3097381591797
    vertex 15.47382545471191 -193.2835388183594 -121.3097381591797
  endloop
endfacet
facet normal -1.31441502551885e-30 0 1
  outer loop
    vertex 15.42602252960205 -194.7185211181641 -121.3097381591797
    vertex 15.14859580993652 -191.8850708007812 -121.3097381591797
    vertex 15.00844573974609 -196.0922546386719 -121.3097381591797
  endloop
endfacet
facet normal -1.31441502551885e-30 0 1
  outer loop
    vertex 15.00844573974609 -196.0922546386719 -121.3097381591797
    vertex 15.14859580993652 -191.8850708007812 -121.3097381591797
    vertex 14.47249794006348 -190.6184234619141 -121.3097381591797
  endloop
endfacet
facet normal -1.31441502551885e-30 0 1
  outer loop
    vertex 15.00844573974609 -196.0922546386719 -121.3097381591797
    vertex 14.47249794006348 -190.6184234619141 -121.3097381591797
    vertex 14.24955081939697 -197.3110961914062 -121.3097381591797
  endloop
endfacet
facet normal -1.31441502551885e-30 0 1
  outer loop
    vertex 14.24955081939697 -197.3110961914062 -121.3097381591797
    vertex 14.47249794006348 -190.6184234619141 -121.3097381591797
    vertex 13.49160671234131 -189.5699310302734 -121.3097381591797
  endloop
endfacet
facet normal -1.31441502551885e-30 0 1
  outer loop
    vertex 14.24955081939697 -197.3110961914062 -121.3097381591797
    vertex 13.49160671234131 -189.5699310302734 -121.3097381591797
    vertex 13.20105648040771 -198.2919769287109 -121.3097381591797
  endloop
endfacet
facet normal -1.31441502551885e-30 0 1
  outer loop
    vertex 13.20105648040771 -198.2919769287109 -121.3097381591797
    vertex 13.49160671234131 -189.5699310302734 -121.3097381591797
    vertex 12.79996967315674 -193.8063812255859 -121.3097381591797
  endloop
endfacet
facet normal -1.31441502551885e-30 0 1
  outer loop
    vertex 12.79996967315674 -193.8063812255859 -121.3097381591797
    vertex 13.49160671234131 -189.5699310302734 -121.3097381591797
    vertex 12.27276802062988 -188.81103515625 -121.3097381591797
  endloop
endfacet
facet normal -1.31441502551885e-30 0 1
  outer loop
    vertex 12.79996967315674 -193.8063812255859 -121.3097381591797
    vertex 12.27276802062988 -188.81103515625 -121.3097381591797
    vertex 12.701171875 -193.0821380615234 -121.3097381591797
  endloop
endfacet
facet normal -1.31441502551885e-30 0 1
  outer loop
    vertex 12.701171875 -193.0821380615234 -121.3097381591797
    vertex 12.27276802062988 -188.81103515625 -121.3097381591797
    vertex 12.41829490661621 -192.4081573486328 -121.3097381591797
  endloop
endfacet
facet normal -1.31441502551885e-30 0 1
  outer loop
    vertex 12.41829490661621 -192.4081573486328 -121.3097381591797
    vertex 12.27276802062988 -188.81103515625 -121.3097381591797
    vertex 11.97061443328857 -191.8303375244141 -121.3097381591797
  endloop
endfacet
facet normal -1.31441502551885e-30 0 1
  outer loop
    vertex 11.97061443328857 -191.8303375244141 -121.3097381591797
    vertex 12.27276802062988 -188.81103515625 -121.3097381591797
    vertex 10.89904403686523 -188.3934631347656 -121.3097381591797
  endloop
endfacet
facet normal -1.31441502551885e-30 0 1
  outer loop
    vertex 11.97061443328857 -191.8303375244141 -121.3097381591797
    vertex 10.89904403686523 -188.3934631347656 -121.3097381591797
    vertex 11.38863945007324 -191.3880920410156 -121.3097381591797
  endloop
endfacet
facet normal -1.31441502551885e-30 0 1
  outer loop
    vertex 11.38863945007324 -191.3880920410156 -121.3097381591797
    vertex 10.89904403686523 -188.3934631347656 -121.3097381591797
    vertex 10.71203231811523 -191.1115264892578 -121.3097381591797
  endloop
endfacet
facet normal -1.31441502551885e-30 0 1
  outer loop
    vertex 10.71203231811523 -191.1115264892578 -121.3097381591797
    vertex 10.89904403686523 -188.3934631347656 -121.3097381591797
    vertex 9.464052200317383 -188.3456573486328 -121.3097381591797
  endloop
endfacet
facet normal -1.31441502551885e-30 0 1
  outer loop
    vertex 10.71203231811523 -191.1115264892578 -121.3097381591797
    vertex 9.464052200317383 -188.3456573486328 -121.3097381591797
    vertex 9.986900329589844 -191.0195159912109 -121.3097381591797
  endloop
endfacet
facet normal -1.31441502551885e-30 0 1
  outer loop
    vertex 9.986900329589844 -191.0195159912109 -121.3097381591797
    vertex 9.464052200317383 -188.3456573486328 -121.3097381591797
    vertex 9.262660980224609 -191.1183166503906 -121.3097381591797
  endloop
endfacet
facet normal -1.31441502551885e-30 0 1
  outer loop
    vertex 9.262660980224609 -191.1183166503906 -121.3097381591797
    vertex 9.464052200317383 -188.3456573486328 -121.3097381591797
    vertex 8.065584182739258 -188.6708831787109 -121.3097381591797
  endloop
endfacet
facet normal -1.31441502551885e-30 0 1
  outer loop
    vertex 9.262660980224609 -191.1183166503906 -121.3097381591797
    vertex 8.065584182739258 -188.6708831787109 -121.3097381591797
    vertex 8.58867073059082 -191.4011840820312 -121.3097381591797
  endloop
endfacet
facet normal -1.31441502551885e-30 0 1
  outer loop
    vertex 8.58867073059082 -191.4011840820312 -121.3097381591797
    vertex 8.065584182739258 -188.6708831787109 -121.3097381591797
    vertex 8.010859489440918 -191.848876953125 -121.3097381591797
  endloop
endfacet
facet normal -1.31441502551885e-30 0 1
  outer loop
    vertex 8.010859489440918 -191.848876953125 -121.3097381591797
    vertex 8.065584182739258 -188.6708831787109 -121.3097381591797
    vertex 6.798943042755127 -189.3469848632812 -121.3097381591797
  endloop
endfacet
facet normal -1.31441502551885e-30 0 1
  outer loop
    vertex 8.010859489440918 -191.848876953125 -121.3097381591797
    vertex 6.798943042755127 -189.3469848632812 -121.3097381591797
    vertex 7.568605422973633 -192.4308471679688 -121.3097381591797
  endloop
endfacet
facet normal -1.31441502551885e-30 0 1
  outer loop
    vertex 7.568605422973633 -192.4308471679688 -121.3097381591797
    vertex 6.798943042755127 -189.3469848632812 -121.3097381591797
    vertex 7.292047023773193 -193.1074523925781 -121.3097381591797
  endloop
endfacet
facet normal -1.31441502551885e-30 0 1
  outer loop
    vertex 7.292047023773193 -193.1074523925781 -121.3097381591797
    vertex 6.798943042755127 -189.3469848632812 -121.3097381591797
    vertex 7.20003080368042 -193.8325805664062 -121.3097381591797
  endloop
endfacet
facet normal -1.31441502551885e-30 0 1
  outer loop
    vertex 13.20105648040771 -198.2919769287109 -121.3097381591797
    vertex 12.70795345306396 -194.5315093994141 -121.3097381591797
    vertex 11.93441581726074 -198.9680786132812 -121.3097381591797
  endloop
endfacet
facet normal -1.31441502551885e-30 0 1
  outer loop
    vertex 12.70795345306396 -194.5315093994141 -121.3097381591797
    vertex 13.20105648040771 -198.2919769287109 -121.3097381591797
    vertex 12.79996967315674 -193.8063812255859 -121.3097381591797
  endloop
endfacet
facet normal -1.31441502551885e-30 0 1
  outer loop
    vertex 11.93441581726074 -198.9680786132812 -121.3097381591797
    vertex 12.70795345306396 -194.5315093994141 -121.3097381591797
    vertex 12.43139457702637 -195.2081298828125 -121.3097381591797
  endloop
endfacet
facet normal -1.31441502551885e-30 0 1
  outer loop
    vertex 11.93441581726074 -198.9680786132812 -121.3097381591797
    vertex 12.43139457702637 -195.2081298828125 -121.3097381591797
    vertex 11.98914051055908 -195.7901000976562 -121.3097381591797
  endloop
endfacet
facet normal -1.31441502551885e-30 0 1
  outer loop
    vertex 11.93441581726074 -198.9680786132812 -121.3097381591797
    vertex 11.98914051055908 -195.7901000976562 -121.3097381591797
    vertex 11.41132926940918 -196.2377777099609 -121.3097381591797
  endloop
endfacet
facet normal -1.31441502551885e-30 0 1
  outer loop
    vertex 11.93441581726074 -198.9680786132812 -121.3097381591797
    vertex 11.41132926940918 -196.2377777099609 -121.3097381591797
    vertex 10.53594779968262 -199.2933044433594 -121.3097381591797
  endloop
endfacet
facet normal -1.31441502551885e-30 0 1
  outer loop
    vertex 10.53594779968262 -199.2933044433594 -121.3097381591797
    vertex 11.41132926940918 -196.2377777099609 -121.3097381591797
    vertex 10.73733901977539 -196.5206604003906 -121.3097381591797
  endloop
endfacet
facet normal -1.31441502551885e-30 0 1
  outer loop
    vertex 10.53594779968262 -199.2933044433594 -121.3097381591797
    vertex 10.73733901977539 -196.5206604003906 -121.3097381591797
    vertex 10.01309967041016 -196.6194610595703 -121.3097381591797
  endloop
endfacet
facet normal -1.31441502551885e-30 0 1
  outer loop
    vertex 10.53594779968262 -199.2933044433594 -121.3097381591797
    vertex 10.01309967041016 -196.6194610595703 -121.3097381591797
    vertex 9.100955963134766 -199.2455139160156 -121.3097381591797
  endloop
endfacet
facet normal -1.31441502551885e-30 0 1
  outer loop
    vertex 9.100955963134766 -199.2455139160156 -121.3097381591797
    vertex 10.01309967041016 -196.6194610595703 -121.3097381591797
    vertex 9.287967681884766 -196.5274353027344 -121.3097381591797
  endloop
endfacet
facet normal -1.31441502551885e-30 0 1
  outer loop
    vertex 9.100955963134766 -199.2455139160156 -121.3097381591797
    vertex 9.287967681884766 -196.5274353027344 -121.3097381591797
    vertex 8.611360549926758 -196.2508850097656 -121.3097381591797
  endloop
endfacet
facet normal -1.31441502551885e-30 0 1
  outer loop
    vertex 9.100955963134766 -199.2455139160156 -121.3097381591797
    vertex 8.611360549926758 -196.2508850097656 -121.3097381591797
    vertex 7.727231979370117 -198.8279266357422 -121.3097381591797
  endloop
endfacet
facet normal -1.31441502551885e-30 0 1
  outer loop
    vertex 7.727231979370117 -198.8279266357422 -121.3097381591797
    vertex 8.611360549926758 -196.2508850097656 -121.3097381591797
    vertex 8.029385566711426 -195.8086242675781 -121.3097381591797
  endloop
endfacet
facet normal -1.31441502551885e-30 0 1
  outer loop
    vertex 7.727231979370117 -198.8279266357422 -121.3097381591797
    vertex 8.029385566711426 -195.8086242675781 -121.3097381591797
    vertex 7.581705093383789 -195.2308197021484 -121.3097381591797
  endloop
endfacet
facet normal -1.31441502551885e-30 0 1
  outer loop
    vertex 7.727231979370117 -198.8279266357422 -121.3097381591797
    vertex 7.581705093383789 -195.2308197021484 -121.3097381591797
    vertex 6.50839376449585 -198.0690307617188 -121.3097381591797
  endloop
endfacet
facet normal -1.31441502551885e-30 0 1
  outer loop
    vertex 6.50839376449585 -198.0690307617188 -121.3097381591797
    vertex 7.581705093383789 -195.2308197021484 -121.3097381591797
    vertex 7.298827648162842 -194.5568237304688 -121.3097381591797
  endloop
endfacet
facet normal -1.31441502551885e-30 0 1
  outer loop
    vertex 6.50839376449585 -198.0690307617188 -121.3097381591797
    vertex 7.298827648162842 -194.5568237304688 -121.3097381591797
    vertex 7.20003080368042 -193.8325805664062 -121.3097381591797
  endloop
endfacet
facet normal -1.31441502551885e-30 0 1
  outer loop
    vertex 6.50839376449585 -198.0690307617188 -121.3097381591797
    vertex 7.20003080368042 -193.8325805664062 -121.3097381591797
    vertex 6.798943042755127 -189.3469848632812 -121.3097381591797
  endloop
endfacet
facet normal -1.31441502551885e-30 0 1
  outer loop
    vertex 6.50839376449585 -198.0690307617188 -121.3097381591797
    vertex 6.798943042755127 -189.3469848632812 -121.3097381591797
    vertex 5.750448703765869 -190.327880859375 -121.3097381591797
  endloop
endfacet
facet normal -1.31441502551885e-30 0 1
  outer loop
    vertex 6.50839376449585 -198.0690307617188 -121.3097381591797
    vertex 5.750448703765869 -190.327880859375 -121.3097381591797
    vertex 5.527502536773682 -197.0205383300781 -121.3097381591797
  endloop
endfacet
facet normal -1.31441502551885e-30 0 1
  outer loop
    vertex 5.527502536773682 -197.0205383300781 -121.3097381591797
    vertex 5.750448703765869 -190.327880859375 -121.3097381591797
    vertex 4.991554737091064 -191.5467224121094 -121.3097381591797
  endloop
endfacet
facet normal -1.31441502551885e-30 0 1
  outer loop
    vertex 5.527502536773682 -197.0205383300781 -121.3097381591797
    vertex 4.991554737091064 -191.5467224121094 -121.3097381591797
    vertex 4.851404666900635 -195.75390625 -121.3097381591797
  endloop
endfacet
facet normal -1.31441502551885e-30 0 1
  outer loop
    vertex 4.851404666900635 -195.75390625 -121.3097381591797
    vertex 4.991554737091064 -191.5467224121094 -121.3097381591797
    vertex 4.573977470397949 -192.9204406738281 -121.3097381591797
  endloop
endfacet
facet normal -1.31441502551885e-30 0 1
  outer loop
    vertex 4.851404666900635 -195.75390625 -121.3097381591797
    vertex 4.573977470397949 -192.9204406738281 -121.3097381591797
    vertex 4.526175022125244 -194.3554382324219 -121.3097381591797
  endloop
endfacet
facet normal 0.6831726431846619 -0.7302569150924683 9.006680033796996e-31
  outer loop
    vertex 6.798943042755127 -189.3469848632812 -119.3097381591797
    vertex 5.750448703765869 -190.327880859375 -121.3097381591797
    vertex 6.798943042755127 -189.3469848632812 -121.3097381591797
  endloop
endfacet
facet normal 0.6831726431846619 -0.7302569150924683 9.006680033796996e-31
  outer loop
    vertex 5.750448703765869 -190.327880859375 -121.3097381591797
    vertex 6.798943042755127 -189.3469848632812 -119.3097381591797
    vertex 5.750448703765869 -190.327880859375 -119.3097381591797
  endloop
endfacet
facet normal 0.8488984704017639 -0.5285559296607971 1.102541854856583e-30
  outer loop
    vertex 4.991554737091064 -191.5467224121094 -119.3097381591797
    vertex 5.750448703765869 -190.327880859375 -121.3097381591797
    vertex 5.750448703765869 -190.327880859375 -119.3097381591797
  endloop
endfacet
facet normal 0.8488984704017639 -0.5285559296607971 1.102541854856583e-30
  outer loop
    vertex 5.750448703765869 -190.327880859375 -121.3097381591797
    vertex 4.991554737091064 -191.5467224121094 -119.3097381591797
    vertex 4.991554737091064 -191.5467224121094 -121.3097381591797
  endloop
endfacet
facet normal 0.9567732810974121 -0.2908347249031067 1.257829360577611e-30
  outer loop
    vertex 4.573977470397949 -192.9204406738281 -119.3097381591797
    vertex 4.991554737091064 -191.5467224121094 -121.3097381591797
    vertex 4.991554737091064 -191.5467224121094 -119.3097381591797
  endloop
endfacet
facet normal 0.9567732810974121 -0.2908347249031067 1.257829360577611e-30
  outer loop
    vertex 4.991554737091064 -191.5467224121094 -121.3097381591797
    vertex 4.573977470397949 -192.9204406738281 -119.3097381591797
    vertex 4.573977470397949 -192.9204406738281 -121.3097381591797
  endloop
endfacet
facet normal 0.9994456171989441 -0.03329361230134964 1.314121151931144e-30
  outer loop
    vertex 4.526175022125244 -194.3554382324219 -119.3097381591797
    vertex 4.573977470397949 -192.9204406738281 -121.3097381591797
    vertex 4.573977470397949 -192.9204406738281 -119.3097381591797
  endloop
endfacet
facet normal 0.9994456171989441 -0.03329361230134964 1.314121151931144e-30
  outer loop
    vertex 4.573977470397949 -192.9204406738281 -121.3097381591797
    vertex 4.526175022125244 -194.3554382324219 -119.3097381591797
    vertex 4.526175022125244 -194.3554382324219 -121.3097381591797
  endloop
endfacet
facet normal 0.9740073680877686 0.2265163958072662 1.288886955761364e-30
  outer loop
    vertex 4.851404666900635 -195.75390625 -119.3097381591797
    vertex 4.526175022125244 -194.3554382324219 -121.3097381591797
    vertex 4.526175022125244 -194.3554382324219 -119.3097381591797
  endloop
endfacet
facet normal 0.9740073680877686 0.2265163958072662 1.288886955761364e-30
  outer loop
    vertex 4.526175022125244 -194.3554382324219 -121.3097381591797
    vertex 4.851404666900635 -195.75390625 -119.3097381591797
    vertex 4.851404666900635 -195.75390625 -121.3097381591797
  endloop
endfacet
facet normal 0.882192075252533 0.470889687538147 1.149128106572892e-30
  outer loop
    vertex 5.527502536773682 -197.0205383300781 -119.3097381591797
    vertex 4.851404666900635 -195.75390625 -121.3097381591797
    vertex 4.851404666900635 -195.75390625 -119.3097381591797
  endloop
endfacet
facet normal 0.882192075252533 0.470889687538147 1.149128106572892e-30
  outer loop
    vertex 4.851404666900635 -195.75390625 -121.3097381591797
    vertex 5.527502536773682 -197.0205383300781 -119.3097381591797
    vertex 5.527502536773682 -197.0205383300781 -121.3097381591797
  endloop
endfacet
facet normal 0.7302569150924683 0.6831726431846619 9.938405068123161e-31
  outer loop
    vertex 6.50839376449585 -198.0690307617188 -119.3097381591797
    vertex 5.527502536773682 -197.0205383300781 -121.3097381591797
    vertex 5.527502536773682 -197.0205383300781 -119.3097381591797
  endloop
endfacet
facet normal 0.7302569150924683 0.6831726431846619 9.938405068123161e-31
  outer loop
    vertex 5.527502536773682 -197.0205383300781 -121.3097381591797
    vertex 6.50839376449585 -198.0690307617188 -119.3097381591797
    vertex 6.50839376449585 -198.0690307617188 -121.3097381591797
  endloop
endfacet
facet normal 0.5285559296607971 0.8488984704017639 6.832653543109391e-31
  outer loop
    vertex 6.50839376449585 -198.0690307617188 -119.3097381591797
    vertex 7.727231979370117 -198.8279266357422 -121.3097381591797
    vertex 6.50839376449585 -198.0690307617188 -121.3097381591797
  endloop
endfacet
facet normal 0.5285559296607971 0.8488984704017639 6.832653543109391e-31
  outer loop
    vertex 7.727231979370117 -198.8279266357422 -121.3097381591797
    vertex 6.50839376449585 -198.0690307617188 -119.3097381591797
    vertex 7.727231979370117 -198.8279266357422 -119.3097381591797
  endloop
endfacet
facet normal 0.2908347249031067 0.9567732810974121 4.037477029537676e-31
  outer loop
    vertex 7.727231979370117 -198.8279266357422 -119.3097381591797
    vertex 9.100955963134766 -199.2455139160156 -121.3097381591797
    vertex 7.727231979370117 -198.8279266357422 -121.3097381591797
  endloop
endfacet
facet normal 0.2908347249031067 0.9567732810974121 4.037477029537676e-31
  outer loop
    vertex 9.100955963134766 -199.2455139160156 -121.3097381591797
    vertex 7.727231979370117 -198.8279266357422 -119.3097381591797
    vertex 9.100955963134766 -199.2455139160156 -119.3097381591797
  endloop
endfacet
facet normal 0.03329361230134964 0.9994456171989441 3.105751583788488e-32
  outer loop
    vertex 9.100955963134766 -199.2455139160156 -119.3097381591797
    vertex 10.53594779968262 -199.2933044433594 -121.3097381591797
    vertex 9.100955963134766 -199.2455139160156 -121.3097381591797
  endloop
endfacet
facet normal 0.03329361230134964 0.9994456171989441 3.105751583788488e-32
  outer loop
    vertex 10.53594779968262 -199.2933044433594 -121.3097381591797
    vertex 9.100955963134766 -199.2455139160156 -119.3097381591797
    vertex 10.53594779968262 -199.2933044433594 -119.3097381591797
  endloop
endfacet
facet normal -0.2265163958072662 0.9740073680877686 -2.795176513571715e-31
  outer loop
    vertex 10.53594779968262 -199.2933044433594 -119.3097381591797
    vertex 11.93441581726074 -198.9680786132812 -121.3097381591797
    vertex 10.53594779968262 -199.2933044433594 -121.3097381591797
  endloop
endfacet
facet normal -0.2265163958072662 0.9740073680877686 -2.795176513571715e-31
  outer loop
    vertex 11.93441581726074 -198.9680786132812 -121.3097381591797
    vertex 10.53594779968262 -199.2933044433594 -119.3097381591797
    vertex 11.93441581726074 -198.9680786132812 -119.3097381591797
  endloop
endfacet
facet normal -0.470889687538147 0.882192075252533 -6.211503050027541e-31
  outer loop
    vertex 11.93441581726074 -198.9680786132812 -119.3097381591797
    vertex 13.20105648040771 -198.2919769287109 -121.3097381591797
    vertex 11.93441581726074 -198.9680786132812 -121.3097381591797
  endloop
endfacet
facet normal -0.470889687538147 0.882192075252533 -6.211503050027541e-31
  outer loop
    vertex 13.20105648040771 -198.2919769287109 -121.3097381591797
    vertex 11.93441581726074 -198.9680786132812 -119.3097381591797
    vertex 13.20105648040771 -198.2919769287109 -119.3097381591797
  endloop
endfacet
facet normal -0.6831726431846619 0.7302569150924683 -9.006680033796996e-31
  outer loop
    vertex 13.20105648040771 -198.2919769287109 -119.3097381591797
    vertex 14.24955081939697 -197.3110961914062 -121.3097381591797
    vertex 13.20105648040771 -198.2919769287109 -121.3097381591797
  endloop
endfacet
facet normal -0.6831726431846619 0.7302569150924683 -9.006680033796996e-31
  outer loop
    vertex 14.24955081939697 -197.3110961914062 -121.3097381591797
    vertex 13.20105648040771 -198.2919769287109 -119.3097381591797
    vertex 14.24955081939697 -197.3110961914062 -119.3097381591797
  endloop
endfacet
facet normal -0.8488984704017639 0.5285559296607971 -1.102541854856583e-30
  outer loop
    vertex 14.24955081939697 -197.3110961914062 -121.3097381591797
    vertex 15.00844573974609 -196.0922546386719 -119.3097381591797
    vertex 15.00844573974609 -196.0922546386719 -121.3097381591797
  endloop
endfacet
facet normal -0.8488984704017639 0.5285559296607971 -1.102541854856583e-30
  outer loop
    vertex 15.00844573974609 -196.0922546386719 -119.3097381591797
    vertex 14.24955081939697 -197.3110961914062 -121.3097381591797
    vertex 14.24955081939697 -197.3110961914062 -119.3097381591797
  endloop
endfacet
facet normal -0.9567732810974121 0.2908347249031067 -1.257829360577611e-30
  outer loop
    vertex 15.00844573974609 -196.0922546386719 -121.3097381591797
    vertex 15.42602252960205 -194.7185211181641 -119.3097381591797
    vertex 15.42602252960205 -194.7185211181641 -121.3097381591797
  endloop
endfacet
facet normal -0.9567732810974121 0.2908347249031067 -1.257829360577611e-30
  outer loop
    vertex 15.42602252960205 -194.7185211181641 -119.3097381591797
    vertex 15.00844573974609 -196.0922546386719 -121.3097381591797
    vertex 15.00844573974609 -196.0922546386719 -119.3097381591797
  endloop
endfacet
facet normal -0.9994456171989441 0.03329361230134964 -1.314121151931144e-30
  outer loop
    vertex 15.42602252960205 -194.7185211181641 -121.3097381591797
    vertex 15.47382545471191 -193.2835388183594 -119.3097381591797
    vertex 15.47382545471191 -193.2835388183594 -121.3097381591797
  endloop
endfacet
facet normal -0.9994456171989441 0.03329361230134964 -1.314121151931144e-30
  outer loop
    vertex 15.47382545471191 -193.2835388183594 -119.3097381591797
    vertex 15.42602252960205 -194.7185211181641 -121.3097381591797
    vertex 15.42602252960205 -194.7185211181641 -119.3097381591797
  endloop
endfacet
facet normal -0.9740073680877686 -0.2265163958072662 -1.281122486435765e-30
  outer loop
    vertex 15.47382545471191 -193.2835388183594 -121.3097381591797
    vertex 15.14859580993652 -191.8850708007812 -119.3097381591797
    vertex 15.14859580993652 -191.8850708007812 -121.3097381591797
  endloop
endfacet
facet normal -0.9740073680877686 -0.2265163958072662 -1.281122486435765e-30
  outer loop
    vertex 15.14859580993652 -191.8850708007812 -119.3097381591797
    vertex 15.47382545471191 -193.2835388183594 -121.3097381591797
    vertex 15.47382545471191 -193.2835388183594 -119.3097381591797
  endloop
endfacet
facet normal -0.882192075252533 -0.470889687538147 -1.149128106572892e-30
  outer loop
    vertex 15.14859580993652 -191.8850708007812 -121.3097381591797
    vertex 14.47249794006348 -190.6184234619141 -119.3097381591797
    vertex 14.47249794006348 -190.6184234619141 -121.3097381591797
  endloop
endfacet
facet normal -0.882192075252533 -0.470889687538147 -1.149128106572892e-30
  outer loop
    vertex 14.47249794006348 -190.6184234619141 -119.3097381591797
    vertex 15.14859580993652 -191.8850708007812 -121.3097381591797
    vertex 15.14859580993652 -191.8850708007812 -119.3097381591797
  endloop
endfacet
facet normal -0.7302569150924683 -0.6831726431846619 -9.627830056681106e-31
  outer loop
    vertex 14.47249794006348 -190.6184234619141 -121.3097381591797
    vertex 13.49160671234131 -189.5699310302734 -119.3097381591797
    vertex 13.49160671234131 -189.5699310302734 -121.3097381591797
  endloop
endfacet
facet normal -0.7302569150924683 -0.6831726431846619 -9.627830056681106e-31
  outer loop
    vertex 13.49160671234131 -189.5699310302734 -119.3097381591797
    vertex 14.47249794006348 -190.6184234619141 -121.3097381591797
    vertex 14.47249794006348 -190.6184234619141 -119.3097381591797
  endloop
endfacet
facet normal -0.5285559296607971 -0.8488984704017639 -6.832653543109391e-31
  outer loop
    vertex 13.49160671234131 -189.5699310302734 -119.3097381591797
    vertex 12.27276802062988 -188.81103515625 -121.3097381591797
    vertex 13.49160671234131 -189.5699310302734 -121.3097381591797
  endloop
endfacet
facet normal -0.5285559296607971 -0.8488984704017639 -6.832653543109391e-31
  outer loop
    vertex 12.27276802062988 -188.81103515625 -121.3097381591797
    vertex 13.49160671234131 -189.5699310302734 -119.3097381591797
    vertex 12.27276802062988 -188.81103515625 -119.3097381591797
  endloop
endfacet
facet normal -0.2908347249031067 -0.9567732810974121 -4.037477029537676e-31
  outer loop
    vertex 12.27276802062988 -188.81103515625 -119.3097381591797
    vertex 10.89904403686523 -188.3934631347656 -121.3097381591797
    vertex 12.27276802062988 -188.81103515625 -121.3097381591797
  endloop
endfacet
facet normal -0.2908347249031067 -0.9567732810974121 -4.037477029537676e-31
  outer loop
    vertex 10.89904403686523 -188.3934631347656 -121.3097381591797
    vertex 12.27276802062988 -188.81103515625 -119.3097381591797
    vertex 10.89904403686523 -188.3934631347656 -119.3097381591797
  endloop
endfacet
facet normal -0.03329361230134964 -0.9994456171989441 -3.105751583788488e-32
  outer loop
    vertex 10.89904403686523 -188.3934631347656 -119.3097381591797
    vertex 9.464052200317383 -188.3456573486328 -121.3097381591797
    vertex 10.89904403686523 -188.3934631347656 -121.3097381591797
  endloop
endfacet
facet normal -0.03329361230134964 -0.9994456171989441 -3.105751583788488e-32
  outer loop
    vertex 9.464052200317383 -188.3456573486328 -121.3097381591797
    vertex 10.89904403686523 -188.3934631347656 -119.3097381591797
    vertex 9.464052200317383 -188.3456573486328 -119.3097381591797
  endloop
endfacet
facet normal 0.2265163958072662 -0.9740073680877686 2.795176513571715e-31
  outer loop
    vertex 9.464052200317383 -188.3456573486328 -119.3097381591797
    vertex 8.065584182739258 -188.6708831787109 -121.3097381591797
    vertex 9.464052200317383 -188.3456573486328 -121.3097381591797
  endloop
endfacet
facet normal 0.2265163958072662 -0.9740073680877686 2.795176513571715e-31
  outer loop
    vertex 8.065584182739258 -188.6708831787109 -121.3097381591797
    vertex 9.464052200317383 -188.3456573486328 -119.3097381591797
    vertex 8.065584182739258 -188.6708831787109 -119.3097381591797
  endloop
endfacet
facet normal 0.470889687538147 -0.882192075252533 6.211503050027541e-31
  outer loop
    vertex 8.065584182739258 -188.6708831787109 -119.3097381591797
    vertex 6.798943042755127 -189.3469848632812 -121.3097381591797
    vertex 8.065584182739258 -188.6708831787109 -121.3097381591797
  endloop
endfacet
facet normal 0.470889687538147 -0.882192075252533 6.211503050027541e-31
  outer loop
    vertex 6.798943042755127 -189.3469848632812 -121.3097381591797
    vertex 8.065584182739258 -188.6708831787109 -119.3097381591797
    vertex 6.798943042755127 -189.3469848632812 -119.3097381591797
  endloop
endfacet
endsolid com.sketchup.SketchUp.2021
